<svg xmlns="http://www.w3.org/2000/svg" width="800" height="600" viewBox="0 0 800 600">
  <defs>
    <pattern id="stripes" patternUnits="userSpaceOnUse" width="20" height="20" patternTransform="rotate(45)">
      <rect width="20" height="20" fill="#e8f5e9"/>
      <line x1="0" y1="0" x2="0" y2="20" stroke="#c8e6c9" stroke-width="6"/>
    </pattern>
  </defs>
  <rect width="800" height="600" fill="url(#stripes)"/>
  <rect x="20" y="20" width="760" height="560" rx="16" fill="#1a6b2a" opacity="0.92"/>
  <!-- Electronics / circuit board icon -->
  <g transform="translate(400,195)" fill="none" stroke="#e8f5e9" stroke-width="5" stroke-linecap="round" stroke-linejoin="round">
    <!-- Monitor/screen -->
    <rect x="-55" y="-65" width="110" height="80" rx="6"/>
    <!-- Screen inner -->
    <rect x="-42" y="-55" width="84" height="58" rx="3" stroke-width="2"/>
    <!-- Stand -->
    <line x1="-20" y1="15" x2="-25" y2="45"/>
    <line x1="20" y1="15" x2="25" y2="45"/>
    <line x1="-35" y1="45" x2="35" y2="45"/>
    <!-- Circuit traces on screen -->
    <path d="M-30,-40 L-15,-40 L-15,-25 L5,-25 L5,-40 L20,-40" stroke-width="2.5"/>
    <circle cx="-30" cy="-40" r="3" fill="#e8f5e9"/>
    <circle cx="20" cy="-40" r="3" fill="#e8f5e9"/>
    <path d="M-20,-15 L0,-15 L10,-25" stroke-width="2.5"/>
    <circle cx="-20" cy="-15" r="3" fill="#e8f5e9"/>
  </g>
  <!-- Recycling arrows -->
  <g transform="translate(400,340)" fill="none" stroke="#c8e6c9" stroke-width="3">
    <path d="M0,-25 L15,-5 L5,-5 L5,10 L-5,10 L-5,-5 L-15,-5 Z" transform="rotate(0) translate(0,-20)"/>
    <path d="M0,-25 L15,-5 L5,-5 L5,10 L-5,10 L-5,-5 L-15,-5 Z" transform="rotate(120) translate(0,-20)"/>
    <path d="M0,-25 L15,-5 L5,-5 L5,10 L-5,10 L-5,-5 L-15,-5 Z" transform="rotate(240) translate(0,-20)"/>
  </g>
  <!-- Text -->
  <text x="400" y="440" text-anchor="middle" font-family="Arial, Helvetica, sans-serif" font-weight="bold" font-size="72" fill="#e8f5e9" letter-spacing="8">ABS</text>
  <text x="400" y="490" text-anchor="middle" font-family="Arial, Helvetica, sans-serif" font-size="24" fill="#c8e6c9">Aparas industriais</text>
  <rect x="20" y="20" width="760" height="560" rx="16" fill="none" stroke="#c8e6c9" stroke-width="2"/>
</svg>