<svg xmlns="http://www.w3.org/2000/svg" width="800" height="600" viewBox="0 0 800 600">
  <defs>
    <pattern id="stripes" patternUnits="userSpaceOnUse" width="20" height="20" patternTransform="rotate(45)">
      <rect width="20" height="20" fill="#e8f5e9"/>
      <line x1="0" y1="0" x2="0" y2="20" stroke="#c8e6c9" stroke-width="6"/>
    </pattern>
  </defs>
  <rect width="800" height="600" fill="url(#stripes)"/>
  <rect x="20" y="20" width="760" height="560" rx="16" fill="#1a6b2a" opacity="0.92"/>
  <!-- Industrial gear icon -->
  <g transform="translate(400,195)" fill="none" stroke="#e8f5e9" stroke-width="5" stroke-linecap="round" stroke-linejoin="round">
    <circle cx="0" cy="0" r="25"/>
    <circle cx="0" cy="0" r="12"/>
    <path d="M-8,-58 L8,-58 L10,-42 L-10,-42 Z" transform="rotate(0)"/>
    <path d="M-8,-58 L8,-58 L10,-42 L-10,-42 Z" transform="rotate(45)"/>
    <path d="M-8,-58 L8,-58 L10,-42 L-10,-42 Z" transform="rotate(90)"/>
    <path d="M-8,-58 L8,-58 L10,-42 L-10,-42 Z" transform="rotate(135)"/>
    <path d="M-8,-58 L8,-58 L10,-42 L-10,-42 Z" transform="rotate(180)"/>
    <path d="M-8,-58 L8,-58 L10,-42 L-10,-42 Z" transform="rotate(225)"/>
    <path d="M-8,-58 L8,-58 L10,-42 L-10,-42 Z" transform="rotate(270)"/>
    <path d="M-8,-58 L8,-58 L10,-42 L-10,-42 Z" transform="rotate(315)"/>
    <circle cx="0" cy="0" r="42" stroke-dasharray="4 8"/>
  </g>
  <!-- Recycling arrows -->
  <g transform="translate(400,340)" fill="none" stroke="#c8e6c9" stroke-width="3">
    <path d="M0,-25 L15,-5 L5,-5 L5,10 L-5,10 L-5,-5 L-15,-5 Z" transform="rotate(0) translate(0,-20)"/>
    <path d="M0,-25 L15,-5 L5,-5 L5,10 L-5,10 L-5,-5 L-15,-5 Z" transform="rotate(120) translate(0,-20)"/>
    <path d="M0,-25 L15,-5 L5,-5 L5,10 L-5,10 L-5,-5 L-15,-5 Z" transform="rotate(240) translate(0,-20)"/>
  </g>
  <!-- Text -->
  <text x="400" y="440" text-anchor="middle" font-family="Arial, Helvetica, sans-serif" font-weight="bold" font-size="72" fill="#e8f5e9" letter-spacing="8">PP</text>
  <text x="400" y="490" text-anchor="middle" font-family="Arial, Helvetica, sans-serif" font-size="24" fill="#c8e6c9">Aparas industriais</text>
  <rect x="20" y="20" width="760" height="560" rx="16" fill="none" stroke="#c8e6c9" stroke-width="2"/>
</svg>