<svg xmlns="http://www.w3.org/2000/svg" width="800" height="600" viewBox="0 0 800 600">
  <defs>
    <pattern id="stripes" patternUnits="userSpaceOnUse" width="20" height="20" patternTransform="rotate(45)">
      <rect width="20" height="20" fill="#e8f5e9"/>
      <line x1="0" y1="0" x2="0" y2="20" stroke="#c8e6c9" stroke-width="6"/>
    </pattern>
  </defs>
  <rect width="800" height="600" fill="url(#stripes)"/>
  <rect x="20" y="20" width="760" height="560" rx="16" fill="#1a6b2a" opacity="0.92"/>
  <!-- Film/sheet icon -->
  <g transform="translate(400,195)" fill="none" stroke="#e8f5e9" stroke-width="5" stroke-linecap="round" stroke-linejoin="round">
    <path d="M-45,-65 L30,-65 L45,-50 L45,65 L-45,65 Z"/>
    <path d="M30,-65 L30,-50 L45,-50"/>
    <line x1="-25" y1="-35" x2="25" y2="-35"/>
    <line x1="-25" y1="-15" x2="25" y2="-15"/>
    <line x1="-25" y1="5" x2="25" y2="5"/>
    <line x1="-25" y1="25" x2="10" y2="25"/>
    <!-- Wavy line representing film -->
    <path d="M-50,55 Q-35,45 -20,55 Q-5,65 10,55 Q25,45 40,55 Q55,65 70,55" stroke-width="3" opacity="0.6"/>
  </g>
  <!-- Recycling arrows -->
  <g transform="translate(400,340)" fill="none" stroke="#c8e6c9" stroke-width="3">
    <path d="M0,-25 L15,-5 L5,-5 L5,10 L-5,10 L-5,-5 L-15,-5 Z" transform="rotate(0) translate(0,-20)"/>
    <path d="M0,-25 L15,-5 L5,-5 L5,10 L-5,10 L-5,-5 L-15,-5 Z" transform="rotate(120) translate(0,-20)"/>
    <path d="M0,-25 L15,-5 L5,-5 L5,10 L-5,10 L-5,-5 L-15,-5 Z" transform="rotate(240) translate(0,-20)"/>
  </g>
  <!-- Text -->
  <text x="400" y="440" text-anchor="middle" font-family="Arial, Helvetica, sans-serif" font-weight="bold" font-size="72" fill="#e8f5e9" letter-spacing="8">PEBD</text>
  <text x="400" y="490" text-anchor="middle" font-family="Arial, Helvetica, sans-serif" font-size="24" fill="#c8e6c9">Aparas industriais</text>
  <rect x="20" y="20" width="760" height="560" rx="16" fill="none" stroke="#c8e6c9" stroke-width="2"/>
</svg>